<svg width="80" height="80" viewBox="0 0 80 80" fill="none" xmlns="http://www.w3.org/2000/svg">
<path d="M43.9857 7.14287C41.4308 6.12067 38.5806 6.12067 36.0257 7.14287L10.6629 17.2857C9.20535 17.8692 7.95605 18.8759 7.07606 20.176C6.19607 21.4761 5.72573 23.0101 5.72571 24.58V55.4143C5.72516 56.9847 6.19523 58.5193 7.07526 59.82C7.95529 61.1207 9.2049 62.1278 10.6629 62.7114L36.0286 72.8543C38.2262 73.7345 40.6536 73.8621 42.9314 73.2172C41.8242 72.0371 40.8542 70.7355 40.04 69.3372C39.2115 69.3377 38.3905 69.1817 37.62 68.8772L24.7343 63.7229L24.6543 63.6914L12.2543 58.7314C11.5922 58.4661 11.0248 58.0086 10.625 57.4179C10.2253 56.8272 10.0116 56.1304 10.0114 55.4172V24.58C10.0114 24.3514 10.0333 24.1257 10.0771 23.9029L37.8629 35.02V53.0372C38.6726 50.0122 40.1355 47.2015 42.1486 44.8029V35.02L69.9371 23.9057C69.979 24.1248 70 24.3495 70 24.58V40.4372C71.5829 41.4372 73.0229 42.6372 74.2857 44.0029V24.5829C74.2857 23.0129 73.8154 21.479 72.9354 20.1789C72.0554 18.8787 70.8061 17.872 69.3486 17.2886L43.9857 7.14287ZM37.6171 11.12C39.1504 10.5064 40.861 10.5064 42.3943 11.12L66.3714 20.7143L56.0714 24.8343L29.7057 14.2857L37.6171 11.12ZM23.9371 16.5943L50.3086 27.1429L40.0057 31.2657L13.6371 20.7143L23.9371 16.5943ZM77.1429 58.5714C77.1429 63.4969 75.1862 68.2206 71.7034 71.7034C68.2206 75.1862 63.4969 77.1429 58.5714 77.1429C53.646 77.1429 48.9223 75.1862 45.4394 71.7034C41.9566 68.2206 40 63.4969 40 58.5714C40 53.646 41.9566 48.9223 45.4394 45.4395C48.9223 41.9566 53.646 40 58.5714 40C63.4969 40 68.2206 41.9566 71.7034 45.4395C75.1862 48.9223 77.1429 53.646 77.1429 58.5714ZM55.2971 66.7257L69.5829 52.44C69.8511 52.1718 70.0018 51.8079 70.0018 51.4286C70.0018 51.0492 69.8511 50.6854 69.5829 50.4172C69.3146 50.1489 68.9508 49.9982 68.5714 49.9982C68.1921 49.9982 67.8282 50.1489 67.56 50.4172L54.2857 63.6943L49.5829 58.9886C49.45 58.8558 49.2923 58.7504 49.1188 58.6785C48.9453 58.6066 48.7593 58.5696 48.5714 58.5696C48.3836 58.5696 48.1976 58.6066 48.024 58.6785C47.8505 58.7504 47.6928 58.8558 47.56 58.9886C47.4272 59.1214 47.3218 59.2791 47.2499 59.4526C47.178 59.6262 47.141 59.8122 47.141 60C47.141 60.1878 47.178 60.3739 47.2499 60.5474C47.3218 60.7209 47.4272 60.8786 47.56 61.0114L53.2743 66.7257C53.407 66.8588 53.5646 66.9643 53.7382 67.0363C53.9117 67.1084 54.0978 67.1454 54.2857 67.1454C54.4736 67.1454 54.6597 67.1084 54.8332 67.0363C55.0068 66.9643 55.1644 66.8588 55.2971 66.7257Z" fill="#F7931E"/>
</svg>
