<svg width="80" height="80" viewBox="0 0 80 80" fill="none" xmlns="http://www.w3.org/2000/svg">
<path d="M20 32.5C20 37.8043 22.1071 42.8914 25.8579 46.6421C29.6086 50.3929 34.6957 52.5 40 52.5C45.3043 52.5 50.3914 50.3929 54.1421 46.6421C57.8929 42.8914 60 37.8043 60 32.5C60 27.1957 57.8929 22.1086 54.1421 18.3579C50.3914 14.6071 45.3043 12.5 40 12.5C34.6957 12.5 29.6086 14.6071 25.8579 18.3579C22.1071 22.1086 20 27.1957 20 32.5Z" stroke="#F7931E" stroke-width="3" stroke-linecap="round" stroke-linejoin="round"/>
<path d="M22.6666 22.5033H27.5C28.826 22.5033 30.0978 23.0301 31.0355 23.9678C31.9732 24.9055 32.5 26.1772 32.5 27.5033V29.8367C32.5 30.6598 32.7033 31.4701 33.0917 32.1958C33.4802 32.9215 34.0417 33.5401 34.7266 33.9967L37.92 36.1267C38.5608 36.5525 39.0863 37.1302 39.4499 37.8083C39.8134 38.4864 40.0037 39.2439 40.0037 40.0133C40.0037 40.7827 39.8134 41.5402 39.4499 42.2183C39.0863 42.8964 38.5608 43.4741 37.92 43.9L29.4833 49.5133M57.3333 22.5033H55C54.1475 22.5031 53.3091 22.7208 52.5645 23.1358C51.8198 23.5507 51.1937 24.1492 50.7454 24.8743C50.2972 25.5994 50.0418 26.4271 50.0035 27.2787C49.9652 28.1303 50.1453 28.9776 50.5266 29.74C51.95 32.5867 52.2766 32.7233 53.16 33.2533L59.4933 37.0467" stroke="#F7931E" stroke-width="3" stroke-linecap="round" stroke-linejoin="round"/>
<path d="M70 32.5C70 58.8333 46.8933 73.6033 41.2367 76.8333C40.8594 77.0484 40.4326 77.1616 39.9983 77.1616C39.5641 77.1616 39.1373 77.0484 38.76 76.8333C33.1033 73.6 10 58.8267 10 32.5C10 28.5603 10.776 24.6593 12.2836 21.0195C13.7913 17.3797 16.001 14.0726 18.7868 11.2868C21.5726 8.50104 24.8797 6.29126 28.5195 4.78361C32.1593 3.27597 36.0603 2.5 40 2.5C43.9397 2.5 47.8407 3.27597 51.4805 4.78361C55.1203 6.29126 58.4274 8.50104 61.2132 11.2868C63.999 14.0726 66.2087 17.3797 67.7164 21.0195C69.224 24.6593 70 28.5603 70 32.5Z" stroke="#F7931E" stroke-width="3" stroke-linecap="round" stroke-linejoin="round"/>
</svg>
