<svg width="80" height="80" viewBox="0 0 80 80" fill="none" xmlns="http://www.w3.org/2000/svg">
<path d="M56.6667 66.6667C60.3486 66.6667 63.3333 63.6819 63.3333 60C63.3333 56.3181 60.3486 53.3333 56.6667 53.3333C52.9848 53.3333 50 56.3181 50 60C50 63.6819 52.9848 66.6667 56.6667 66.6667Z" stroke="#F7931E" stroke-width="3"/>
<path d="M23.3333 66.6667C27.0152 66.6667 30 63.6819 30 60C30 56.3181 27.0152 53.3333 23.3333 53.3333C19.6514 53.3333 16.6666 56.3181 16.6666 60C16.6666 63.6819 19.6514 66.6667 23.3333 66.6667Z" stroke="#F7931E" stroke-width="3"/>
<path d="M16.6666 59.9067C13.01 59.7267 10.7333 59.1833 9.10663 57.56C7.47996 55.9367 6.93996 53.6567 6.75996 50M30 60H50M63.3333 59.9067C66.99 59.7267 69.2666 59.1833 70.8933 57.56C73.3333 55.1167 73.3333 51.19 73.3333 43.3333V36.6667H57.6666C55.1833 36.6667 53.9433 36.6667 52.94 36.34C51.9395 36.0149 51.0301 35.4576 50.2862 34.7137C49.5424 33.9699 48.9851 33.0605 48.66 32.06C48.3333 31.0567 48.3333 29.8167 48.3333 27.3333C48.3333 23.61 48.3333 21.75 47.8433 20.2433C47.3556 18.7426 46.5197 17.3786 45.4039 16.2627C44.2881 15.1469 42.924 14.311 41.4233 13.8233C39.9166 13.3333 38.0566 13.3333 34.3333 13.3333H6.66663M6.66663 26.6667H26.6666M6.66663 36.6667H20" stroke="#F7931E" stroke-width="3" stroke-linecap="round" stroke-linejoin="round"/>
<path d="M48.3333 20H54.4032C59.2566 20 61.6799 20 63.6533 21.18C65.6299 22.3567 66.7799 24.4933 69.0799 28.7667L73.3333 36.6667" stroke="#F7931E" stroke-width="3" stroke-linecap="round" stroke-linejoin="round"/>
</svg>
