<svg width="80" height="80" viewBox="0 0 80 80" fill="none" xmlns="http://www.w3.org/2000/svg">
<path d="M40 17.1667L14.6167 27.32C14.2322 27.4911 13.9211 27.7478 13.6833 28.09C13.45 28.4322 13.3333 28.8167 13.3333 29.2433V61.2833C13.3333 61.7522 13.5578 62.2111 14.0067 62.66C14.4556 63.1089 14.9156 63.3333 15.3867 63.3333H23.3333V42.0533C23.3333 40.56 23.8578 39.2889 24.9067 38.24C25.9556 37.1911 27.2267 36.6667 28.72 36.6667H51.2833C52.7722 36.6667 54.0422 37.1911 55.0933 38.24C56.1422 39.2889 56.6667 40.56 56.6667 42.0533V63.3333H64.6167C65.0856 63.3333 65.5444 63.1089 65.9933 62.66C66.4422 62.2111 66.6667 61.7522 66.6667 61.2833V29.24C66.6667 28.8133 66.5489 28.4289 66.3133 28.0867C66.08 27.7445 65.7711 27.4889 65.3867 27.32L40 17.1667ZM10 61.28V29.2433C10 28.11 10.3111 27.0956 10.9333 26.2C11.5556 25.3022 12.3778 24.6467 13.4 24.2333L38.0133 14.4C38.6622 14.1089 39.3244 13.9633 40 13.9633C40.6756 13.9633 41.3378 14.1078 41.9867 14.3967L66.6033 24.23C67.6256 24.6456 68.4478 25.3011 69.07 26.1967C69.69 27.0967 70 28.1122 70 29.2433V61.2833C70 62.7722 69.4756 64.0422 68.4267 65.0933C67.3778 66.1422 66.1078 66.6667 64.6167 66.6667H53.3333V42.0533C53.3333 41.4533 53.1411 40.9611 52.7567 40.5767C52.3722 40.1922 51.8811 40 51.2833 40H28.7167C28.1189 40 27.6278 40.1922 27.2433 40.5767C26.8589 40.9611 26.6667 41.4533 26.6667 42.0533V66.6667H15.3867C13.8933 66.6667 12.6222 66.1422 11.5733 65.0933C10.5244 64.0445 10 62.7711 10 61.28ZM31.86 66.6667V61.54H36.9867V66.6667H31.86ZM37.4367 56.6667V51.54H42.5633V56.6667H37.4367ZM43.0133 66.6667V61.54H48.14V66.6667H43.0133Z" fill="#F7931E"/>
</svg>
